<svg width="855" height="735" viewBox="0 0 855 735" fill="none" xmlns="http://www.w3.org/2000/svg">
<g clip-path="url(#clip0_125_891)">
<path d="M697.937 753.617C690.122 749.679 681.076 746.872 674.253 741.24C665.994 734.426 667.687 721.826 663.89 712.565C656.281 693.973 638.104 690.053 621.67 682.384C615.309 679.405 610.231 675.981 608.589 668.791C606.281 658.81 608.435 648.128 607.58 637.976C605.921 618.683 596.106 604.011 578.442 595.931C565.736 590.128 548.825 588.245 538.034 579.086C531.981 573.933 532.597 566.246 532.409 558.919C532.152 548.476 530.664 538.718 525.534 529.491C517.976 515.864 504.587 506.551 491.642 498.539C479.467 491.024 465.65 484.519 456.108 473.545C443.3 458.823 450.705 437.852 446.669 420.253C442.616 402.603 429.176 390.448 414.059 381.683C401.251 374.253 385.195 369.015 375.277 357.579C363.05 343.507 371.002 321.68 369.822 304.92C368.214 281.946 355.116 268.781 337.246 256.045C331.193 251.713 324.25 247.023 321.275 239.85C317.188 229.972 319 218.006 318.556 207.597C317.667 187.003 310.639 170.363 293.607 158.293C279.363 148.193 261.972 144.136 247.266 134.926C227.139 122.326 237.605 97.5371 232.611 77.8671C226.37 53.2666 207.167 37.2943 184.697 27.8616C173.651 23.2394 161.766 19.7128 152.327 12.0947C148.24 8.80784 144.136 4.64785 141.434 -0.00859833H0V377.557C2.565 380.211 4.8222 383.121 6.7032 386.168C13.6287 397.33 12.6369 409.69 15.8517 421.999C21.7512 444.699 41.2965 455.724 59.7474 467.365C66.0402 471.32 73.6668 476.216 76.4883 482.653C81.3789 493.814 75.9411 509.325 77.9589 521.548C81.9261 545.532 102.703 555.718 120.128 569.139C127.976 575.183 133.004 582.167 134.355 592.148C135.911 603.481 134.047 615.293 133.363 626.626C132.662 638.113 132.611 650.216 136.065 661.31C140.015 673.978 148.069 683.411 157.508 692.347C165.614 700.033 170.572 704.587 169.752 716.126C168.726 730.643 170.572 744.201 183.62 752.881C187.912 755.723 192.991 757.383 197.864 758.941C201.421 760.088 205.952 760.687 208.193 763.923C209.441 765.737 210.227 768.014 210.894 770.377H717.995C712.882 763.341 705.58 757.452 697.937 753.617Z" fill="#FAFCFF"/>
<path d="M601.612 -0.00855923C594.618 7.25002 588.753 15.6042 584.803 24.8829C580.117 35.8392 579.228 47.1893 577.193 58.7962C575.193 70.2319 570.747 77.3878 561.171 83.8931C552.296 89.9191 542.668 95.2432 535.315 103.221C521.311 118.423 516.198 138.641 509.118 157.523C506.314 164.987 502.843 173.136 496.926 178.683C489.436 185.684 478.407 187.276 468.865 189.947C446.413 196.23 431.262 209.805 421.224 230.708C413.136 247.571 408.245 268.131 393.83 280.987C386.477 287.527 377.636 291.738 368.3 295.06C369.069 298.141 369.582 301.411 369.822 304.92C371.002 321.68 363.05 343.507 375.277 357.579C385.195 369.015 401.251 374.253 414.059 381.683C429.176 390.448 442.616 402.603 446.669 420.253C450.705 437.852 443.3 458.823 456.108 473.545C465.65 484.519 479.467 491.024 491.642 498.539C504.587 506.551 517.976 515.864 525.534 529.491C530.664 538.718 532.152 548.476 532.409 558.919C532.597 566.246 531.981 573.933 538.034 579.086C548.825 588.245 565.736 590.128 578.442 595.931C586.872 599.783 593.507 605.124 598.329 611.766C604.912 608.753 611.068 605.073 616.027 599.749C623.723 591.463 625.501 581.482 626.971 570.68C627.963 563.541 629.451 557.464 633.983 551.712C643.593 539.506 659.513 532.521 673.603 527.094C690.96 520.401 709.103 513.416 719.534 496.947C729.674 480.958 726.134 460.791 735.488 444.905C753.152 414.912 796.86 421.314 823.194 404.777C841.269 393.41 843.406 372.764 855 356.552V-0.00855923H601.612Z" fill="white"/>
<mask id="mask0_125_891" style="mask-type:luminance" maskUnits="userSpaceOnUse" x="0" y="-1" width="855" height="857">
<path d="M855 -0.00859833H0V855.956H855V-0.00859833Z" fill="white"/>
</mask>
<g mask="url(#mask0_125_891)">
<path d="M454.843 770.368H887.866C899.682 755.587 911.076 739.562 921.268 722.946C931.461 706.332 935.72 682.844 922.451 668.572C912.617 657.995 896.009 656.201 882.196 660.39C868.382 664.579 856.681 673.692 845.33 682.618C855.569 664.408 865.479 642.737 857.572 623.397C848.618 601.495 819.676 593.853 797.069 600.769C774.462 607.685 756.846 625.09 740.201 641.895C748.286 636.399 749.575 623.962 744.375 615.68C739.173 607.398 729.084 603.137 719.317 602.82C709.549 602.503 699.997 605.593 690.944 609.281C656.117 623.466 625.232 647.219 602.563 677.249C608.707 666.62 597.575 652.673 585.364 651.514C573.153 650.357 561.819 657.484 551.942 664.766C514.276 692.544 480.459 731.177 454.843 770.368Z" fill="#E0F0FF"/>
</g>
<mask id="mask1_125_891" style="mask-type:luminance" maskUnits="userSpaceOnUse" x="0" y="0" width="855" height="737">
<path d="M855 -5.34058e-05H0V737H855V-5.34058e-05Z" fill="white"/>
</mask>
<g mask="url(#mask1_125_891)">
<path d="M238.63 770.368H395.718C401.104 764.525 403.132 759.506 406.491 754.861C409.849 750.219 410.595 745.403 409.695 739.742C409.008 735.417 405.853 731.576 401.749 730.064C397.645 728.554 392.754 729.436 389.434 732.285C396.927 718.89 399.56 702.839 396.74 687.75C395.441 680.793 392.703 673.617 386.944 669.513C378.868 663.758 367.159 666.014 359.314 672.081C351.47 678.15 346.6 687.194 341.956 695.963C342.956 691.777 343.965 687.523 343.751 683.224C343.539 678.925 341.933 674.5 338.556 671.835C334.491 668.626 328.594 668.596 323.799 670.546C319.004 672.497 315.107 676.13 311.526 679.87C300.182 691.717 290.804 705.447 283.894 720.328C284.665 716.435 285.437 712.443 284.8 708.526C284.164 704.61 281.811 700.722 278.073 699.404C272.424 697.409 266.623 701.795 262.593 706.232C246.512 723.932 238.535 746.439 238.63 770.368Z" fill="#E0F0FF"/>
</g>
<path d="M191.765 517.023L251.822 574.265H335.453C335.829 545.828 335.82 533.884 335.82 533.884C350.434 527.517 371.202 513.786 381.734 504.083V389.106L248.562 461.868C263.376 453.276 274.715 437.042 283.879 429.761C296.738 419.542 312.311 410.866 324.83 400.232C337.349 389.597 348.125 376.386 353.469 360.846C355.969 353.572 356.87 344.539 351.48 339.056C347.631 335.141 341.494 334.254 336.133 335.43C330.772 336.606 325.984 339.534 321.311 342.415C291.606 360.727 261.902 379.04 232.199 397.352C220.2 404.75 208.054 412.265 198.357 422.499C188.659 432.733 181.527 446.173 181.812 460.278C182.192 479.22 188.883 498.296 191.765 517.023Z" fill="#ED7B5F"/>
<path d="M163.375 352.002C193.704 336.596 224.627 323.866 257.071 313.656C263.55 311.617 270.601 309.688 277.006 311.953C284.725 314.682 289.402 323.26 289.165 331.452C288.929 339.643 284.536 347.272 278.751 353.067C272.964 358.863 265.835 363.095 258.786 367.264C241.206 377.662 223.625 388.06 206.043 398.458C199.779 402.163 196.214 403.911 194.378 410.959C189.106 431.206 190.186 441.873 187.527 456.837C183.593 478.986 157.091 496.54 134.635 497.356L163.375 352.002Z" fill="#ED7B5F"/>
<path d="M367.91 186.458H177.202V548.148H367.91V186.458Z" fill="white"/>
<path d="M163.378 197.74V549.132C163.378 563.011 174.617 574.261 188.48 574.261H356.634C370.497 574.261 381.735 563.011 381.735 549.132V197.74C381.735 183.861 370.497 172.61 356.634 172.61H188.48C174.617 172.612 163.378 183.861 163.378 197.74ZM367.908 198.245V525.961C367.908 538.212 357.988 548.143 345.753 548.143H199.36C187.123 548.143 177.204 538.212 177.204 525.961V198.245C177.204 191.745 182.476 186.453 188.982 186.453H213.813C218.731 186.453 222.717 190.444 222.717 195.367C222.717 201.919 228.022 207.229 234.566 207.229H310.543C317.087 207.229 322.391 201.919 322.391 195.367C322.391 190.444 326.377 186.453 331.295 186.453H356.128C362.638 186.453 367.908 191.745 367.908 198.245Z" fill="#1C1B1E"/>
<path d="M311.545 515.301H233.565C226.665 515.301 221.021 509.65 221.021 502.742V476.266C221.021 469.358 226.665 463.707 233.565 463.707H311.545C318.445 463.707 324.089 469.358 324.089 476.266V502.742C324.089 509.65 318.445 515.301 311.545 515.301Z" fill="#55FFDD"/>
<path d="M240.497 485.501C239.717 485.501 238.967 485.376 238.247 485.126C237.537 484.866 236.987 484.536 236.597 484.136L237.032 483.281C237.402 483.641 237.897 483.946 238.517 484.196C239.147 484.436 239.807 484.556 240.497 484.556C241.157 484.556 241.692 484.476 242.102 484.316C242.522 484.146 242.827 483.921 243.017 483.641C243.217 483.361 243.317 483.051 243.317 482.711C243.317 482.301 243.197 481.971 242.957 481.721C242.727 481.471 242.422 481.276 242.042 481.136C241.662 480.986 241.242 480.856 240.782 480.746C240.322 480.636 239.862 480.521 239.402 480.401C238.942 480.271 238.517 480.101 238.127 479.891C237.747 479.681 237.437 479.406 237.197 479.066C236.967 478.716 236.852 478.261 236.852 477.701C236.852 477.181 236.987 476.706 237.257 476.276C237.537 475.836 237.962 475.486 238.532 475.226C239.102 474.956 239.832 474.821 240.722 474.821C241.312 474.821 241.897 474.906 242.477 475.076C243.057 475.236 243.557 475.461 243.977 475.751L243.602 476.636C243.152 476.336 242.672 476.116 242.162 475.976C241.662 475.836 241.177 475.766 240.707 475.766C240.077 475.766 239.557 475.851 239.147 476.021C238.737 476.191 238.432 476.421 238.232 476.711C238.042 476.991 237.947 477.311 237.947 477.671C237.947 478.081 238.062 478.411 238.292 478.661C238.532 478.911 238.842 479.106 239.222 479.246C239.612 479.386 240.037 479.511 240.497 479.621C240.957 479.731 241.412 479.851 241.862 479.981C242.322 480.111 242.742 480.281 243.122 480.491C243.512 480.691 243.822 480.961 244.052 481.301C244.292 481.641 244.412 482.086 244.412 482.636C244.412 483.146 244.272 483.621 243.992 484.061C243.712 484.491 243.282 484.841 242.702 485.111C242.132 485.371 241.397 485.501 240.497 485.501ZM251.39 485.501C250.6 485.501 249.87 485.371 249.2 485.111C248.53 484.841 247.95 484.466 247.46 483.986C246.97 483.506 246.585 482.941 246.305 482.291C246.035 481.641 245.9 480.931 245.9 480.161C245.9 479.391 246.035 478.681 246.305 478.031C246.585 477.381 246.97 476.816 247.46 476.336C247.96 475.856 248.545 475.486 249.215 475.226C249.885 474.956 250.615 474.821 251.405 474.821C252.165 474.821 252.88 474.951 253.55 475.211C254.22 475.461 254.785 475.841 255.245 476.351L254.54 477.056C254.11 476.616 253.635 476.301 253.115 476.111C252.595 475.911 252.035 475.811 251.435 475.811C250.805 475.811 250.22 475.921 249.68 476.141C249.14 476.351 248.67 476.656 248.27 477.056C247.87 477.446 247.555 477.906 247.325 478.436C247.105 478.956 246.995 479.531 246.995 480.161C246.995 480.791 247.105 481.371 247.325 481.901C247.555 482.421 247.87 482.881 248.27 483.281C248.67 483.671 249.14 483.976 249.68 484.196C250.22 484.406 250.805 484.511 251.435 484.511C252.035 484.511 252.595 484.411 253.115 484.211C253.635 484.011 254.11 483.691 254.54 483.251L255.245 483.956C254.785 484.466 254.22 484.851 253.55 485.111C252.88 485.371 252.16 485.501 251.39 485.501ZM255.668 485.411L260.468 474.911H261.563L266.363 485.411H265.193L260.783 475.556H261.233L256.823 485.411H255.668ZM257.558 482.606L257.888 481.706H263.993L264.323 482.606H257.558ZM268.1 485.411V474.911H269.015L276.26 484.031H275.78V474.911H276.875V485.411H275.96L268.73 476.291H269.21V485.411H268.1Z" fill="black"/>
<path d="M346.798 448.969H198.312C193.085 448.969 188.81 444.687 188.81 439.456C188.81 434.222 193.086 429.942 198.312 429.942H346.798C352.024 429.942 356.301 434.224 356.301 439.456C356.301 444.687 352.026 448.969 346.798 448.969Z" fill="#1C1B1E"/>
<path d="M320.247 448.88C319.849 448.938 319.452 448.969 319.04 448.969H197.464C192.708 448.969 188.806 445.077 188.806 440.301V438.606C188.806 433.845 192.708 429.939 197.464 429.939H315.521L320.247 448.88Z" fill="#55FFDD"/>
<path d="M301.134 448.967H298.19L293.434 429.937H296.379L301.134 448.967Z" fill="#1C1B1E"/>
<path d="M308.498 448.967H305.553L300.796 429.937H303.742L308.498 448.967Z" fill="#1C1B1E"/>
<path d="M315.859 448.967H312.915L308.159 429.937H311.104L315.859 448.967Z" fill="#1C1B1E"/>
<path d="M220.824 397.76C220.044 397.76 219.319 397.63 218.649 397.37C217.989 397.1 217.409 396.725 216.909 396.245C216.419 395.755 216.039 395.19 215.769 394.55C215.499 393.9 215.364 393.195 215.364 392.435C215.364 391.675 215.499 390.975 215.769 390.335C216.039 389.685 216.419 389.12 216.909 388.64C217.409 388.15 217.989 387.775 218.649 387.515C219.319 387.245 220.044 387.11 220.824 387.11C221.604 387.11 222.324 387.245 222.984 387.515C223.654 387.775 224.234 388.145 224.724 388.625C225.214 389.105 225.594 389.67 225.864 390.32C226.144 390.96 226.284 391.665 226.284 392.435C226.284 393.205 226.144 393.915 225.864 394.565C225.594 395.205 225.214 395.765 224.724 396.245C224.234 396.725 223.654 397.1 222.984 397.37C222.324 397.63 221.604 397.76 220.824 397.76ZM224.274 399.68C223.974 399.68 223.679 399.64 223.389 399.56C223.109 399.48 222.819 399.355 222.519 399.185C222.229 399.025 221.929 398.81 221.619 398.54C221.319 398.28 220.994 397.965 220.644 397.595L221.514 397.385C221.834 397.755 222.149 398.065 222.459 398.315C222.779 398.565 223.089 398.745 223.389 398.855C223.689 398.975 223.984 399.035 224.274 399.035C225.094 399.035 225.784 398.7 226.344 398.03L226.749 398.495C226.109 399.285 225.284 399.68 224.274 399.68ZM220.824 397.055C221.494 397.055 222.114 396.94 222.684 396.71C223.254 396.48 223.749 396.155 224.169 395.735C224.589 395.315 224.914 394.825 225.144 394.265C225.384 393.705 225.504 393.095 225.504 392.435C225.504 391.775 225.384 391.165 225.144 390.605C224.914 390.045 224.589 389.555 224.169 389.135C223.749 388.715 223.254 388.39 222.684 388.16C222.114 387.93 221.494 387.815 220.824 387.815C220.154 387.815 219.534 387.93 218.964 388.16C218.394 388.39 217.894 388.715 217.464 389.135C217.044 389.555 216.714 390.045 216.474 390.605C216.244 391.165 216.129 391.775 216.129 392.435C216.129 393.095 216.244 393.705 216.474 394.265C216.714 394.825 217.044 395.315 217.464 395.735C217.894 396.155 218.394 396.48 218.964 396.71C219.534 396.94 220.154 397.055 220.824 397.055ZM228.937 397.685V387.185H232.702C233.582 387.185 234.337 387.325 234.967 387.605C235.597 387.885 236.082 388.29 236.422 388.82C236.762 389.34 236.932 389.975 236.932 390.725C236.932 391.455 236.762 392.085 236.422 392.615C236.082 393.135 235.597 393.54 234.967 393.83C234.337 394.11 233.582 394.25 232.702 394.25H229.357L229.702 393.89V397.685H228.937ZM236.227 397.685L233.497 393.875H234.367L237.097 397.685H236.227ZM229.702 393.935L229.357 393.575H232.702C233.832 393.575 234.687 393.325 235.267 392.825C235.857 392.325 236.152 391.625 236.152 390.725C236.152 389.815 235.857 389.115 235.267 388.625C234.687 388.125 233.832 387.875 232.702 387.875H229.357L229.702 387.5V393.935ZM246.451 397.745C245.691 397.745 245.011 397.575 244.411 397.235C243.821 396.895 243.351 396.425 243.001 395.825C242.661 395.225 242.491 394.54 242.491 393.77C242.491 392.99 242.661 392.3 243.001 391.7C243.351 391.1 243.821 390.635 244.411 390.305C245.011 389.965 245.691 389.795 246.451 389.795C247.081 389.795 247.651 389.915 248.161 390.155C248.681 390.395 249.101 390.755 249.421 391.235L248.866 391.64C248.586 391.24 248.236 390.945 247.816 390.755C247.396 390.565 246.941 390.47 246.451 390.47C245.841 390.47 245.291 390.61 244.801 390.89C244.321 391.16 243.941 391.545 243.661 392.045C243.391 392.535 243.256 393.11 243.256 393.77C243.256 394.43 243.391 395.01 243.661 395.51C243.941 396 244.321 396.385 244.801 396.665C245.291 396.935 245.841 397.07 246.451 397.07C246.941 397.07 247.396 396.975 247.816 396.785C248.236 396.595 248.586 396.3 248.866 395.9L249.421 396.305C249.101 396.785 248.681 397.145 248.161 397.385C247.651 397.625 247.081 397.745 246.451 397.745ZM254.594 397.745C253.844 397.745 253.174 397.575 252.584 397.235C252.004 396.895 251.539 396.425 251.189 395.825C250.849 395.225 250.679 394.54 250.679 393.77C250.679 392.99 250.849 392.305 251.189 391.715C251.539 391.115 252.004 390.645 252.584 390.305C253.174 389.965 253.844 389.795 254.594 389.795C255.344 389.795 256.014 389.965 256.604 390.305C257.194 390.645 257.659 391.115 257.999 391.715C258.339 392.305 258.509 392.99 258.509 393.77C258.509 394.54 258.339 395.225 257.999 395.825C257.659 396.425 257.194 396.895 256.604 397.235C256.014 397.575 255.344 397.745 254.594 397.745ZM254.594 397.07C255.194 397.07 255.734 396.935 256.214 396.665C256.694 396.385 257.069 395.995 257.339 395.495C257.609 394.995 257.744 394.42 257.744 393.77C257.744 393.11 257.609 392.535 257.339 392.045C257.069 391.545 256.694 391.16 256.214 390.89C255.734 390.61 255.194 390.47 254.594 390.47C253.994 390.47 253.454 390.61 252.974 390.89C252.504 391.16 252.129 391.545 251.849 392.045C251.579 392.535 251.444 393.11 251.444 393.77C251.444 394.42 251.579 394.995 251.849 395.495C252.129 395.995 252.504 396.385 252.974 396.665C253.454 396.935 253.994 397.07 254.594 397.07ZM263.851 397.745C263.121 397.745 262.461 397.58 261.871 397.25C261.291 396.91 260.831 396.44 260.491 395.84C260.151 395.24 259.981 394.55 259.981 393.77C259.981 392.98 260.151 392.29 260.491 391.7C260.831 391.1 261.291 390.635 261.871 390.305C262.461 389.965 263.121 389.795 263.851 389.795C264.541 389.795 265.161 389.955 265.711 390.275C266.271 390.595 266.711 391.05 267.031 391.64C267.361 392.23 267.526 392.94 267.526 393.77C267.526 394.58 267.366 395.285 267.046 395.885C266.726 396.485 266.286 396.945 265.726 397.265C265.176 397.585 264.551 397.745 263.851 397.745ZM263.896 397.07C264.496 397.07 265.031 396.935 265.501 396.665C265.981 396.385 266.356 395.995 266.626 395.495C266.906 394.995 267.046 394.42 267.046 393.77C267.046 393.11 266.906 392.535 266.626 392.045C266.356 391.545 265.981 391.16 265.501 390.89C265.031 390.61 264.496 390.47 263.896 390.47C263.296 390.47 262.756 390.61 262.276 390.89C261.806 391.16 261.431 391.545 261.151 392.045C260.881 392.535 260.746 393.11 260.746 393.77C260.746 394.42 260.881 394.995 261.151 395.495C261.431 395.995 261.806 396.385 262.276 396.665C262.756 396.935 263.296 397.07 263.896 397.07ZM267.061 397.685V395.12L267.196 393.755L267.046 392.39V386.555H267.796V397.685H267.061ZM274.138 397.745C273.348 397.745 272.648 397.575 272.038 397.235C271.438 396.895 270.963 396.425 270.613 395.825C270.273 395.225 270.103 394.54 270.103 393.77C270.103 392.99 270.263 392.305 270.583 391.715C270.913 391.115 271.363 390.645 271.933 390.305C272.503 389.965 273.143 389.795 273.853 389.795C274.563 389.795 275.198 389.96 275.758 390.29C276.328 390.62 276.773 391.085 277.093 391.685C277.423 392.275 277.588 392.96 277.588 393.74C277.588 393.77 277.583 393.805 277.573 393.845C277.573 393.875 277.573 393.91 277.573 393.95H270.658V393.365H277.168L276.868 393.65C276.878 393.04 276.748 392.495 276.478 392.015C276.218 391.525 275.863 391.145 275.413 390.875C274.963 390.595 274.443 390.455 273.853 390.455C273.273 390.455 272.753 390.595 272.293 390.875C271.843 391.145 271.488 391.525 271.228 392.015C270.968 392.495 270.838 393.045 270.838 393.665V393.8C270.838 394.44 270.978 395.01 271.258 395.51C271.548 396 271.943 396.385 272.443 396.665C272.943 396.935 273.513 397.07 274.153 397.07C274.653 397.07 275.118 396.98 275.548 396.8C275.988 396.62 276.358 396.345 276.658 395.975L277.093 396.47C276.753 396.89 276.323 397.21 275.803 397.43C275.293 397.64 274.738 397.745 274.138 397.745Z" fill="black"/>
<path d="M340.511 234.308H204.598V370.374H340.511V234.308Z" fill="#55FFDD"/>
<path d="M218.189 247.908V274.537H244.788V247.908H218.189ZM239.732 269.475H223.246V252.97H239.732V269.475Z" fill="#1C1B1E"/>
<path d="M236.05 256.656H226.92V265.796H236.05V256.656Z" fill="#1C1B1E"/>
<path d="M218.189 329.873V356.502H244.788V329.873H218.189ZM239.732 351.44H223.246V334.935H239.732V351.44Z" fill="#1C1B1E"/>
<path d="M236.05 338.621H226.92V347.761H236.05V338.621Z" fill="#1C1B1E"/>
<path d="M300.321 329.589V356.205H326.92V329.589H300.321ZM321.863 351.142H305.377V334.638H321.863V351.142Z" fill="#1C1B1E"/>
<path d="M318.188 338.325H309.059V347.465H318.188V338.325Z" fill="#1C1B1E"/>
<path d="M259.262 289.027V315.654H285.847V289.027H259.262ZM280.804 310.594H264.304V294.089H280.804V310.594Z" fill="#1C1B1E"/>
<path d="M277.119 297.771H267.99V306.911H277.119V297.771Z" fill="#1C1B1E"/>
<path d="M326.92 247.915H257.591V256.656H326.92V247.915Z" fill="#1C1B1E"/>
<path d="M326.919 317.322V247.915H318.188V317.322H326.919Z" fill="#1C1B1E"/>
<path d="M294.288 349.697H252.273V356.205H294.288V349.697Z" fill="#1C1B1E"/>
<path d="M294.021 339.671H270.488V346.178H294.021V339.671Z" fill="#1C1B1E"/>
<path d="M223.242 278.959H218.189V320.223H223.242V278.959Z" fill="#1C1B1E"/>
<path d="M243.762 284.529H223.24V289.032H243.762V284.529Z" fill="#1C1B1E"/>
<path d="M243.762 300.789H223.24V306.911H243.762V300.789Z" fill="#1C1B1E"/>
<path d="M255.671 267.799H248.875V274.602H255.671V267.799Z" fill="#1C1B1E"/>
<path d="M257.591 256.656H250.795V263.459H257.591V256.656Z" fill="#1C1B1E"/>
<path d="M273.28 267.799H266.485V274.602H273.28V267.799Z" fill="#1C1B1E"/>
<path d="M243.762 289.03H236.967V295.833H243.762V289.03Z" fill="#1C1B1E"/>
<path d="M243.762 306.054H236.967V312.857H243.762V306.054Z" fill="#1C1B1E"/>
<path d="M236.967 313.42H230.171V320.223H236.967V313.42Z" fill="#1C1B1E"/>
<path d="M259.068 329.88H252.273V336.683H259.068V329.88Z" fill="#1C1B1E"/>
<path d="M294.288 329.584H287.492V336.387H294.288V329.584Z" fill="#1C1B1E"/>
<path d="M276.678 321.774H269.883V328.577H276.678V321.774Z" fill="#1C1B1E"/>
<path d="M280.517 332.986H273.721V339.789H280.517V332.986Z" fill="#1C1B1E"/>
<path d="M265.864 336.387H259.068V343.19H265.864V336.387Z" fill="#1C1B1E"/>
<path d="M255.671 313.92H248.875V320.723H255.671V313.92Z" fill="#1C1B1E"/>
<path d="M255.671 292.432H248.875V299.235H255.671V292.432Z" fill="#1C1B1E"/>
<path d="M262.466 274.602H255.671V281.405H262.466V274.602Z" fill="#1C1B1E"/>
<path d="M255.671 281.128H248.875V287.931H255.671V281.128Z" fill="#1C1B1E"/>
<path d="M318.188 317.321H311.393V324.125H318.188V317.321Z" fill="#1C1B1E"/>
<path d="M311.393 310.518H304.597V317.321H311.393V310.518Z" fill="#1C1B1E"/>
<path d="M304.597 303.79H297.802V310.594H304.597V303.79Z" fill="#1C1B1E"/>
<path d="M297.685 296.987H290.89V303.79H297.685V296.987Z" fill="#1C1B1E"/>
<path d="M297.685 269.774H290.89V276.578H297.685V269.774Z" fill="#1C1B1E"/>
<path d="M235.228 277.725H228.432V284.528H235.228V277.725Z" fill="#1C1B1E"/>
<path d="M230.036 292.211H223.24V299.014H230.036V292.211Z" fill="#1C1B1E"/>
<path d="M279.349 278.004H272.553V284.807H279.349V278.004Z" fill="#1C1B1E"/>
<path d="M292.942 278.004H286.146V284.807H292.942V278.004Z" fill="#1C1B1E"/>
<path d="M286.145 278.004H279.349V284.807H286.145V278.004Z" fill="#1C1B1E"/>
<path d="M284.094 256.168H277.299V262.971H284.094V256.168Z" fill="#1C1B1E"/>
<path d="M297.685 256.168H290.89V262.971H297.685V256.168Z" fill="#1C1B1E"/>
<path d="M311.276 256.168H304.481V262.971H311.276V256.168Z" fill="#1C1B1E"/>
<path d="M311.276 269.774H304.481V276.578H311.276V269.774Z" fill="#1C1B1E"/>
<path d="M311.276 283.381H304.481V290.184H311.276V283.381Z" fill="#1C1B1E"/>
<path d="M311.276 296.987H304.481V303.79H311.276V296.987Z" fill="#1C1B1E"/>
<path d="M297.802 310.594H291.006V317.397H297.802V310.594Z" fill="#1C1B1E"/>
<path d="M191.007 247.915V220.702H218.189" stroke="#1C1B1E" stroke-width="0.6888" stroke-miterlimit="10" stroke-linecap="round" stroke-linejoin="round"/>
<path d="M354.102 247.915V220.702H326.92" stroke="#1C1B1E" stroke-width="0.6888" stroke-miterlimit="10" stroke-linecap="round" stroke-linejoin="round"/>
<path d="M354.102 356.768V383.981H326.92" stroke="#1C1B1E" stroke-width="0.6888" stroke-miterlimit="10" stroke-linecap="round" stroke-linejoin="round"/>
<path d="M191.007 356.768V383.981H218.189" stroke="#1C1B1E" stroke-width="0.6888" stroke-miterlimit="10" stroke-linecap="round" stroke-linejoin="round"/>
<path d="M360.901 286.24H184.213V288.962H360.901V286.24Z" fill="#EA134B"/>
<path d="M228.114 491.914C221.103 501.861 217.512 514.049 218.042 526.187C234.355 545.549 250.122 566.708 259.133 590.367C268.145 614.009 268.299 642.598 253.131 662.85C238.459 682.435 210.877 690.549 187.347 683.856C165.784 677.71 148.513 660.83 137.142 641.486C132.798 634.124 128.985 626.421 125.599 618.546C120.093 605.775 115.681 592.473 111.868 579.12C111.235 558.32 111.954 530.518 114.724 512.303C142.973 495.698 167.58 472.912 186.304 445.983C190.391 440.111 194.376 433.88 200.309 429.891C208.158 424.653 217.854 424.242 227.413 423.215C232.987 422.615 238.511 421.794 243.589 419.671C248.48 417.617 252.806 414.432 257.646 412.275C261.305 410.649 265.512 409.673 269.393 410.358C270.026 410.461 270.642 410.615 271.24 410.837C271.839 411.026 272.403 411.265 272.967 411.556C279.636 415.032 281.38 423.814 280.987 431.346C280.269 445.795 274.575 459.935 265.067 470.823C255.559 481.711 242.324 489.261 228.114 491.914Z" fill="#ED7B5F"/>
<path d="M114.717 512.307C114.717 512.307 127.364 467.362 129.957 444.29C132.549 421.218 130.822 377.092 139.751 367.575C148.681 358.059 163.373 352.002 163.373 352.002V473.901L143.784 503.413L114.717 512.307Z" fill="#ED7B5F"/>
<path d="M111.875 579.118C108.446 611.179 75.7991 753.072 69.6533 770.377H250.949C250.949 770.377 244.803 713.85 247.876 705.775C287.439 694.624 335.452 634.364 335.452 574.263H251.821L111.875 579.118Z" fill="#ED7B5F"/>
<path d="M414.406 449.779C413.95 452.905 412.713 455.882 411.417 458.77C405.381 472.124 397.96 485.185 388.596 496.49C386.431 499.115 384.134 501.664 381.735 504.081V444.677C384.37 442.775 387.624 440.418 390.967 438.545C393.337 437.218 395.752 436.141 397.99 435.641C403.409 434.447 409.813 435.922 412.802 440.609C414.495 443.278 414.863 446.639 414.406 449.779Z" fill="#ED7B5F"/>
<path d="M412.698 399.085C412.389 403.596 410.622 407.884 408.604 411.924C403.45 422.169 395.884 432.002 387.269 439.945C385.471 441.611 383.618 443.188 381.732 444.677V389.104C384.117 387.838 386.547 386.554 389.049 385.523C390.949 384.742 392.891 384.107 394.909 383.725C399.562 382.856 404.759 383.578 408.293 386.747C411.653 389.755 413.008 394.576 412.698 399.085Z" fill="#ED7B5F"/>
<path d="M262.69 429.687C257.699 433.991 251.014 435.614 244.595 437.102C241.886 437.735 239.058 438.369 236.365 437.721C233.081 436.941 230.46 434.316 229.048 431.25C227.898 428.759 227.457 425.988 227.413 423.216C232.993 422.612 238.514 421.787 243.595 419.664C248.483 417.615 252.811 414.431 257.641 412.279C261.307 410.642 265.518 409.67 269.39 410.363C270.671 417.363 268.095 425.014 262.69 429.687Z" fill="#F2AE8C"/>
<path opacity="0.2" d="M218.042 526.187C217.512 514.05 221.103 501.861 228.114 491.914C242.324 489.261 255.559 481.711 265.067 470.823C273.477 461.194 278.894 449.018 280.534 436.337C280.089 438.014 279.6 439.683 279.01 441.328C274.446 454.07 266.131 464.169 254.916 471.648C248.123 476.18 240.583 479.837 232.592 481.656C228.304 482.634 222.349 484.348 217.898 482.646C216.913 482.689 215.932 482.723 214.964 482.72C217.495 487.307 214.981 492.649 213.801 497.767C210.809 510.641 204.687 522.796 196.086 532.845C206.636 531.972 215.323 540.24 221.838 548.595C234.885 565.269 244.051 584.99 248.394 605.722C250.857 617.397 251.712 629.911 247.215 640.953C240.528 657.371 222.591 667.454 204.892 667.984C187.194 668.532 170.042 660.812 156.072 649.924C144.546 640.936 134.868 629.894 125.599 618.544C128.985 626.419 132.798 634.123 137.142 641.484C148.513 660.829 165.784 677.708 187.347 683.854C210.877 690.548 238.459 682.433 253.131 662.849C268.299 642.597 268.145 614.007 259.133 590.366C250.122 566.708 234.355 545.549 218.042 526.187Z" fill="#540031"/>
<path d="M194.375 439.649C198.331 444.576 202.286 449.503 206.241 454.43" stroke="#BD543B" stroke-width="0.6458" stroke-miterlimit="10"/>
<path d="M201.33 434.684C205.403 439.786 209.478 444.886 213.553 449.987" stroke="#BD543B" stroke-width="0.6458" stroke-miterlimit="10"/>
<path d="M208.026 430.446C207.89 430.218 207.753 429.989 207.616 429.761C211.422 434.539 215.229 439.317 219.035 444.097" stroke="#BD543B" stroke-width="0.6458" stroke-miterlimit="10"/>
<path d="M159.774 755.724C163.067 739.12 166.362 722.516 169.656 705.912C170.446 701.934 171.169 697.529 169.1 694.042C167.47 691.294 164.449 689.74 161.573 688.355C158.826 687.031 155.683 685.712 152.833 686.79C150.061 687.839 148.568 690.782 147.34 693.482C137.874 714.302 129.023 735.404 120.803 756.746" stroke="#BD543B" stroke-width="0.6458" stroke-miterlimit="10"/>
<path d="M223.685 757.109C220.749 747.48 217.811 737.85 214.875 728.222C213.941 725.158 212.968 722.02 211.009 719.486C208.76 716.579 205.367 714.72 201.833 713.727C199.61 713.102 197.118 712.818 195.077 713.897C192.347 715.34 191.313 718.659 190.531 721.648C187.559 733.004 184.587 744.361 181.615 755.716" stroke="#BD543B" stroke-width="0.6458" stroke-miterlimit="10"/>
<path d="M265.181 628.17C263.971 639.305 261.46 648.77 256.662 657.525C251.864 666.279 242.919 673.831 234.249 678.771C218.722 687.62 198.377 688.487 182.135 682.134C165.894 675.781 150.972 662.917 141.429 648.244" stroke="#BD543B" stroke-width="0.6458" stroke-miterlimit="10"/>
<path d="M138.917 373.848C141.894 375.097 144.869 376.349 147.846 377.599" stroke="#BD543B" stroke-width="0.6458" stroke-miterlimit="10"/>
<path d="M140.136 370.189C143.195 371.285 146.254 372.379 149.314 373.474" stroke="#BD543B" stroke-width="0.6458" stroke-miterlimit="10"/>
<path d="M401.775 398.446C399.547 399.677 397.619 401.449 396.203 403.567C395.36 404.827 394.687 406.248 394.581 407.761C394.475 409.274 395.015 410.889 396.222 411.805C398.307 413.386 401.742 412.031 402.53 409.533C403.319 407.035 401.676 404.164 399.246 403.192C396.817 402.219 393.919 402.954 391.917 404.638C389.914 406.323 388.729 408.824 388.185 411.385C387.642 413.946 387.684 416.593 387.778 419.21" stroke="#BD543B" stroke-width="0.6458" stroke-miterlimit="10"/>
<path d="M402.281 441.698C399.333 442.59 396.778 444.715 395.362 447.454C393.946 450.191 393.688 453.507 394.661 456.431C395.337 458.46 396.655 460.353 398.565 461.314C400.475 462.274 403.004 462.115 404.529 460.617C406.648 458.535 405.903 454.546 403.416 452.922C400.93 451.297 397.423 451.872 395.148 453.784C392.874 455.695 391.713 458.675 391.398 461.632C391.084 464.587 391.525 467.565 391.966 470.505" stroke="#BD543B" stroke-width="0.6458" stroke-miterlimit="10"/>
<path d="M251.82 574.263C257.304 586.283 263.104 598.622 264.566 611.754C265.956 599.023 263.584 586.149 258.824 574.263H251.82Z" fill="#BD543B"/>
<path d="M308.997 574.263H251.82L260.888 582.434L308.997 574.263Z" fill="#BD543B"/>
<path d="M163.375 473.901L139.045 495.785L163.519 456.835L163.375 473.901Z" fill="#BD543B"/>
<path d="M387.27 439.945C385.473 441.611 383.62 443.188 381.733 444.677V410.141L387.27 439.945Z" fill="#BD543B"/>
<path d="M388.596 496.49C386.431 499.115 384.134 501.664 381.735 504.081V471.298L388.596 496.49Z" fill="#BD543B"/>
<path opacity="0.1" d="M381.734 215.299L785.347 350.913H490.868L381.734 247.908V215.299Z" fill="#EA134B"/>
<path d="M751.366 264.359H524.844V491.137H751.366V264.359Z" fill="#55FFDD"/>
<path d="M547.496 287.025V331.405H591.826V287.025H547.496ZM583.399 322.971H555.921V295.462H583.399V322.971Z" fill="#1C1B1E"/>
<path d="M577.262 301.606H562.046V316.839H577.262V301.606Z" fill="#1C1B1E"/>
<path d="M547.496 423.637V468.017H591.826V423.637H547.496ZM583.399 459.581H555.921V432.072H583.399V459.581Z" fill="#1C1B1E"/>
<path d="M577.262 438.214H562.046V453.447H577.262V438.214Z" fill="#1C1B1E"/>
<path d="M684.383 423.16V467.518H728.713V423.16H684.383ZM720.286 459.083H692.808V431.576H720.286V459.083Z" fill="#1C1B1E"/>
<path d="M714.161 437.721H698.946V452.956H714.161V437.721Z" fill="#1C1B1E"/>
<path d="M615.951 355.557V399.937H660.259V355.557H615.951ZM651.854 391.503H624.354V363.994H651.854V391.503Z" fill="#1C1B1E"/>
<path d="M645.711 370.131H630.496V385.364H645.711V370.131Z" fill="#1C1B1E"/>
<path d="M728.713 287.037H613.165V301.606H728.713V287.037Z" fill="#1C1B1E"/>
<path d="M728.713 402.716V287.037H714.161V402.716H728.713Z" fill="#1C1B1E"/>
<path d="M674.325 456.678H604.301V467.523H674.325V456.678Z" fill="#1C1B1E"/>
<path d="M673.882 439.964H634.66V450.809H673.882V439.964Z" fill="#1C1B1E"/>
<path d="M555.916 338.779H547.496V407.552H555.916V338.779Z" fill="#1C1B1E"/>
<path d="M590.119 348.061H555.916V355.564H590.119V348.061Z" fill="#1C1B1E"/>
<path d="M590.119 375.162H555.916V385.366H590.119V375.162Z" fill="#1C1B1E"/>
<path d="M609.964 320.177H598.639V331.515H609.964V320.177Z" fill="#1C1B1E"/>
<path d="M613.165 301.606H601.84V312.944H613.165V301.606Z" fill="#1C1B1E"/>
<path d="M639.313 320.177H627.988V331.515H639.313V320.177Z" fill="#1C1B1E"/>
<path d="M590.118 355.564H578.792V366.902H590.118V355.564Z" fill="#1C1B1E"/>
<path d="M590.118 383.936H578.792V395.274H590.118V383.936Z" fill="#1C1B1E"/>
<path d="M578.792 396.212H567.467V407.55H578.792V396.212Z" fill="#1C1B1E"/>
<path d="M615.628 423.646H604.301V434.984H615.628V423.646Z" fill="#1C1B1E"/>
<path d="M674.325 423.153H663V434.491H674.325V423.153Z" fill="#1C1B1E"/>
<path d="M644.976 410.139H633.651V421.477H644.976V410.139Z" fill="#1C1B1E"/>
<path d="M651.375 428.823H640.05V440.161H651.375V428.823Z" fill="#1C1B1E"/>
<path d="M626.953 434.493H615.628V445.831H626.953V434.493Z" fill="#1C1B1E"/>
<path d="M609.964 397.046H598.639V408.384H609.964V397.046Z" fill="#1C1B1E"/>
<path d="M609.964 361.232H598.639V372.571H609.964V361.232Z" fill="#1C1B1E"/>
<path d="M621.289 331.517H609.964V342.855H621.289V331.517Z" fill="#1C1B1E"/>
<path d="M609.964 342.391H598.639V353.729H609.964V342.391Z" fill="#1C1B1E"/>
<path d="M714.161 402.716H702.836V414.054H714.161V402.716Z" fill="#1C1B1E"/>
<path d="M702.836 391.376H691.509V402.714H702.836V391.376Z" fill="#1C1B1E"/>
<path d="M691.509 380.165H680.184V391.503H691.509V380.165Z" fill="#1C1B1E"/>
<path d="M679.989 368.825H668.663V380.163H679.989V368.825Z" fill="#1C1B1E"/>
<path d="M679.989 323.469H668.663V334.807H679.989V323.469Z" fill="#1C1B1E"/>
<path d="M575.892 336.723H564.567V348.061H575.892V336.723Z" fill="#1C1B1E"/>
<path d="M567.241 360.863H555.916V372.201H567.241V360.863Z" fill="#1C1B1E"/>
<path d="M649.429 337.187H638.104V348.525H649.429V337.187Z" fill="#1C1B1E"/>
<path d="M672.082 337.187H660.756V348.525H672.082V337.187Z" fill="#1C1B1E"/>
<path d="M660.756 337.187H649.431V348.525H660.756V337.187Z" fill="#1C1B1E"/>
<path d="M657.336 300.793H646.011V312.131H657.336V300.793Z" fill="#1C1B1E"/>
<path d="M679.989 300.793H668.663V312.131H679.989V300.793Z" fill="#1C1B1E"/>
<path d="M702.641 300.793H691.316V312.131H702.641V300.793Z" fill="#1C1B1E"/>
<path d="M702.641 323.469H691.316V334.807H702.641V323.469Z" fill="#1C1B1E"/>
<path d="M702.641 346.147H691.316V357.485H702.641V346.147Z" fill="#1C1B1E"/>
<path d="M702.641 368.825H691.316V380.163H702.641V368.825Z" fill="#1C1B1E"/>
<path d="M680.182 391.503H668.856V402.841H680.182V391.503Z" fill="#1C1B1E"/>
<path d="M774.018 287.037V241.682H728.713" stroke="#1C1B1E" stroke-width="0.861" stroke-miterlimit="10" stroke-linecap="round" stroke-linejoin="round"/>
<path d="M774.018 468.459V513.815H728.713" stroke="#1C1B1E" stroke-width="0.861" stroke-miterlimit="10" stroke-linecap="round" stroke-linejoin="round"/>
<path d="M502.191 468.459V513.815H547.496" stroke="#1C1B1E" stroke-width="0.861" stroke-miterlimit="10" stroke-linecap="round" stroke-linejoin="round"/>
<path d="M502.191 287.037V241.682H547.496" stroke="#1C1B1E" stroke-width="0.861" stroke-miterlimit="10" stroke-linecap="round" stroke-linejoin="round"/>
<path d="M785.347 350.913H490.868V355.448H785.347V350.913Z" fill="#EA134B"/>
</g>
<defs>
<clipPath id="clip0_125_891">
<rect width="855" height="737" fill="white"/>
</clipPath>
</defs>
</svg>
