<svg viewBox="0 207.16439999999997 602.4436 185.7336" xmlns:xlink="http://www.w3.org/1999/xlink" version="1.1" xmlns="http://www.w3.org/2000/svg" id="Layer_1" style="max-height: 500px" width="602.4436" height="185.7336">
  
  <defs>
    <style>
      .st0 {
        fill: url(#linear-gradient);
      }
    </style>
    <linearGradient gradientUnits="userSpaceOnUse" y2="297.1" x2="581.2" y1="297.1" x1="14.3" id="linear-gradient">
      <stop stop-color="#56c1eb" offset="0"/>
      <stop stop-color="#7fc7be" offset="1"/>
    </linearGradient>
  </defs>
  <path d="M394.2,256.3c0-1.9,1.1-3.5,5.1-7.2,5.8-5.4,11.5-13.7,14.6-21.4,1.2-2.9,2.4-5.8,2.8-6.4,0,0,0-.1.1-.1.7,0,1.6,10,1.8,18.7v6.4h4.9c5.5,0,5.5-.1,3.2,7-1.6,5-1.7,5.1-4.8,5.3l-3.2.2.3,17.9c.3,18.1.6,20.1,3.5,19.1,2-.7,2.5-2.2,3-9.9.3-3.8.9-6.8,1.3-6.8,3.8,0,4.5,19.3.9,25.5-1,1.8-2.9,4-4.2,4.9-3.2,2.2-8.8,2.2-12.7-.1-1.8-1.1-4-3.5-5.5-6.3l-2.5-4.6-.4-19.9-.4-19.9h-3.8c-3.7,0-3.8,0-3.8-2.5ZM440.8,303.4c-11.6-13.5-10.2-41.6,2.7-53.5,4.3-3.9,8-5.5,12.8-5.6,11.4,0,19.1,11.3,22.2,32.9l.6,4.1h-29v3.5c0,7.3,4.2,12.1,11.2,12.7,6,.5,11.5-1.8,14.7-6.1l2.5-3.3.3,2.5c.5,4.1-1.5,10.7-4.2,14-4.5,5.5-15.7,8.5-23.1,6.1-4.5-1.5-7.3-3.4-10.7-7.3ZM457.6,270.5h8.1l-.5-2.9c-1.2-7.7-3.5-11.1-7.4-11.1s-6.7,3.7-7.4,7.6c-1.3,7.1-2.1,6.4,7.1,6.4ZM531.9,308c.3.5,9.4.7,23.8.6l23.3-.2.2-15.6c.1-8.6,0-15.3-.4-15-.4.3-2.5,4.3-4.6,8.9l-4,8.4-5.9.2c-5.8.2-5.9.2-5.3-1.6.3-1,5.3-11.8,11.1-24,8.1-17.2,10.2-22.3,9.3-22.8-.6-.4-10.9-.7-22.8-.7h-21.6s0,14.6,0,14.6c0,16.8.2,16.9,5.7,4.1l3.4-7.8h4.5c2.5,0,4.7.3,4.9.6.2.3-4.7,11.6-10.9,25-6.2,13.4-11.1,24.8-10.8,25.2ZM489.4,293.5l-4.7,7c-2.6,3.8-4.5,7.3-4.3,7.6.5.7,35.6.9,36.4.2.3-.3-2.2-4.2-5.7-8.6l-6.2-8.2.6-8.3c.9-13.5,3.8-22,7.4-22s3.6,1.7,3.6,9.1,0,7.3,2.1,7.7c4,.9,7,0,9-2.6,3.6-4.8,3.7-16.1.3-22.1-2.1-3.7-6.5-6.9-9.3-6.9-4.7,0-8,3.6-12.1,12.9-.6,1.3-.8.9-1.4-2-.4-1.9-.7-5.2-.7-7.3v-3.8c0,0-10.8.6-10.8.6-5.9.3-11.4.8-12.2,1.1-1.4.4-.9,1.4,3.3,7.8l4.8,7.3v15.3s0,15.3,0,15.3ZM314.7,272.8l8-2.6-.3-5.4c-.4-5.9-1.1-6.8-5.6-6.8-4.6,0-6.5,2-7.1,7.7-.6,5.5-1.6,6.4-8,6.4s-6.5-1.8-6.1-8.8c.4-8,3.5-12.5,10.8-15.8,4.5-2.1,6-2.4,12.2-2.3,5.4,0,7.9.4,10.5,1.7,7.9,3.7,8.4,5.1,9.3,29.5.7,19.6,1.4,23.7,3.4,20.8.5-.6.8-3,.8-5.2,0-2.2.4-4.3.9-4.5,1.5-.8,2.6,3.3,2.6,9.4,0,9.3-2.9,13.5-9.8,14.2-3.2.3-4.2,0-6.5-1.7-1.5-1.2-3.5-3.8-4.4-6l-1.7-4-1.2,2.5c-1.6,3.4-4.9,6.8-7.9,8.2-2.7,1.2-9.8,1.5-12.6.4-2.4-.9-5.4-3.9-6.5-6.5-.5-1.2-.9-5.3-.9-9,0-12.6,3.9-16.8,20.2-22ZM322.1,280.6c-1.7,0-10.1,4.1-10.8,5.2-1.8,3-1.6,9.8.3,11.5,1.6,1.4,2.1,1.5,5.2.5,3.3-1.1,5.7-6.3,5.7-12.3,0-2.7-.2-4.9-.4-4.9ZM21.1,232.4l-6.8-10.2,18.4-.6c10.1-.3,19.5-.3,20.8,0,2.9.6,2.9.5-3,11.7-4.7,8.9-5,11.3-3.5,24.5l.6,5,10.2-11.9,10.2-11.9-4.3-7.9c-2.4-4.4-4.3-8.4-4.3-9,0-.8,3.7-1,19.2-1s19.4.3,19.7.8c.3.4-4.3,6.7-10.2,14-5.9,7.3-11.3,14.1-12,15.2-1.1,1.7-.8,3.2,4.7,18.2,4.5,12.3,7.5,19,12.4,27.4,3.5,6.1,6.4,11.3,6.4,11.5,0,.8-40.1.5-40.6-.3-.3-.4,1.9-4.8,4.8-9.7l5.3-8.9-3.6-9.3c-2-5.1-3.8-9.4-3.9-9.6-1.2-1.2-14.3,13.5-14.3,15.9s2.1,6.3,4.7,11.6c3.8,7.9,4.5,9.8,3.4,10.2-.7.2-10.3.4-21.3.4-18.8,0-20,0-19.2-1.4.5-.8,3.6-5.6,7-10.7l6.2-9.3v-44.8l-6.8-10.2ZM31.7,238.5c1.2,6.6,1.4,9.6.7,10-1.3.7-.7,42.7.7,48.9.6,2.6,1.3,5,1.5,5.3.5.8,3.1.7,4.4,0,2.5-1.4,4-14.1,4.1-33.7v-19.1c0,0-5.6-10.2-5.6-10.2-3.1-5.6-6.1-10.3-6.6-10.4-.6-.2-.3,3.1.8,9.2ZM102.2,256l5.2,7.8v16.5c0,17.5.6,20.5,4.5,25.4,1,1.3,3.1,3,4.6,3.9,6.4,3.5,12.3,1.1,17.4-7l2.8-4.4.2,2.7c.1,1.5.4,3.9.7,5.3l.5,2.5h12.2c7.1,0,12.2-.3,12.2-.7s-2.2-4-4.8-8.1l-4.8-7.3v-46.3h-4.6c-6.8,0-21.6,1.2-22.1,1.8-.3.2,2.1,3.9,5.2,8.1l5.7,7.7v7.8c0,14.1-2.9,22.5-7.9,22.9-5.4.5-6-2.1-6.1-28.2v-20.2s-12.1.6-12.1.6c-6.6.3-12.5.8-13.1,1.1-.7.4.6,2.9,4.1,8.3ZM353.9,283.1c3.3,4.6,10.8,8.1,20,9.1,6.6.8,8.9,1.8,8.9,3.8s-2.7,4.1-6.5,4.1c-5.6,0-11.6-3.2-19.1-10.1l-6.7-6.2v8.3c0,4.6-.3,10.7-.6,13.6-.3,2.9-.3,5.3,0,5.3s2.1-1.6,4.1-3.5l3.6-3.5,3.7,2.2c8,4.8,19.3,6.1,24.4,2.7,5.9-4,8.1-10.3,7.5-21.3-.4-6.5-.8-8.2-2.9-11.8-2.8-4.6-7.2-8.2-11.5-9.5-1.6-.5-6.1-1.3-10.1-1.8l-7.2-.9-.3-2.9c-.3-2.8-.1-2.9,3.2-3.8,2.9-.8,4.2-.7,8.1.4,5.5,1.6,8.5,3.3,14.1,8.1l4.2,3.6v-10.7c0-5.9-.3-10.8-.7-11.1-.4-.2-2.2.4-4.1,1.4l-3.4,1.8-3.6-2.2c-4.1-2.5-8.5-3.7-12.7-3.6-7,.2-13.2,3.8-15.3,10.1-1.5,4.5-1.8,17.4-.5,21.7.5,1.5,2,4.4,3.4,6.4ZM163.7,258.8h3.8l.6,20.4c.6,19.4.7,20.6,2.7,24.1,1.1,2,3.3,4.6,4.8,5.7,5.5,4.1,13.8,2,17.6-4.4,1.8-3,2-4.4,2-12.8s-.2-9.7-1.7-11.7l-1.7-2.3-.5,7c-.3,3.9-.8,7.8-1.1,8.7-.7,2-3.1,3-4.4,1.8-1.2-1.1-2.1-11.4-2.2-25.5v-11.1c0,0,3.6-.2,3.6-.2l3.7-.2,1.5-4.7c2.3-7.5,2.4-7.4-3.6-7.4h-5.2v-12.9c0-7.1-.3-12.9-.7-12.9s-1.4,2-2.3,4.5c-3,8.9-8.4,17.3-14.7,23.2-4.9,4.5-6,6-6,8.1s0,2.5,3.8,2.5ZM210.6,241.5v46.8l-6.1,9.3c-3.4,5.1-6.1,9.7-6.1,10.3,0,1.2,33.7,1.4,34.5.2.3-.4-2.2-5.1-5.5-10.4l-6.1-9.6.5-23.2c.2-12.8.6-23.1.7-23,.1.1,3,14.9,6.4,32.9,3.4,18,6.4,33,6.7,33.4.6.9,8.9.9,9.5,0,.3-.5,11.8-61,12.8-67.8,0-.4.4.7.8,2.5.4,1.7.7,12.5.8,24v20.9s-6.1,9.8-6.1,9.8c-3.4,5.4-5.9,10.1-5.6,10.6.7.9,43.3,1.1,43.3.2s-3-5-6.6-10.3l-6.6-9.7v-23.1s0-23.1,0-23.1l6.5-9.7c3.9-5.8,6.2-10,5.7-10.4s-8.9-.4-20.7,0l-19.9.7-3,17.4c-1.7,9.6-3.3,17.4-3.6,17.4s-1.5-4.7-2.6-10.3c-1.1-5.7-2.7-13.7-3.5-17.8l-1.5-7.4-5.6-.2h0c-3.1-.1-11.6,0-18.9.4l-13.3.6,6.5,9.5,6.5,9.5ZM30.9,330.1v10.9h24.5v5.5h-18.3v21.9h18.3v5.5H21.8l-3.1-2.8v-43.7l3.1-2.8h33.6v5.5h-24.5ZM90.8,373.8h-18.2l-3.1-2.8v-10.9l-6.3-5.6v-16.4l3.1-2.8h12.2l3.1,2.8v30.1h6.2v-8.1l6.1-5.5v-19.2h6.1v24.7l-6.1,5.4v5.4l-3.1,2.8ZM125.7,357.4v10.9h12.3v-5.5h6.1v8.2l-3.1,2.8h-30.5l-3.1-2.8v-32.9l3-2.7h30.6l3,2.7v16.5l-3,2.7h-15.4ZM138,351.9v-10.9h-18.4v10.9h18.4ZM180.9,340.9h-18.4v8.3l6.1,5.4v16.4l-3.1,2.8h-12l-3.1-2.8v-32.8l3.1-2.8h30.4l3.1,2.8v35.6h-6.1v-32.9ZM201.1,373.8l-3.1-2.8v-30.1h-6.3v-5.5h6.3v-10.8h6.1v10.8h12.3v5.5h-6.2v8.2l6.2,5.5v16.4l-3.1,2.8h-12.1ZM295.7,371l-3.1,2.8h-30.5l-3.1-2.8v-8.2h6.1v5.5h12.1v-10.9h-15.1l-3.1-2.8v-16.4l3.1-2.8h30.5l3.1,2.8v8.1h-6.1v-5.4h-18.4v10.9h21.3l3.1,2.8v16.4ZM305,373.8l-3.1-2.8v-32.8l3.1-2.8h30.4l3.1,2.8v32.8l-3.1,2.8h-30.4ZM332.5,340.9h-18.3v8.3l6,5.3v13.7h12.3v-27.4ZM347.6,373.8l-3.1-2.8v-43.7l3.1-2.8h6l3.1,2.8v21.8l6.1,5.4v16.4l-3.1,2.8h-12ZM401.4,373.8h-30.5l-3.1-2.8v-32.8l3.1-2.8h6l3.1,2.8v10.9l6.2,5.5v13.6h12.3v-32.9h6.1v35.6l-3.1,2.8ZM418.6,373.8l-3.1-2.8v-30.1h-6.3v-5.5h6.3v-10.8h6.1v10.8h12.3v5.5h-6.2v8.2l6.2,5.5v16.4l-3.1,2.8h-12.1ZM447.3,331.1h-6.1l-1.1-1v-3.8l1.1-1h6.1l1.1,1v3.8l-1.1,1ZM447.3,335.4v13.7l6.2,5.5v16.4l-3.1,2.8h-6l-3.1-2.8v-35.6h6.1ZM462,373.8l-3.1-2.8v-32.8l3.1-2.8h30.4l3.1,2.8v32.8l-3.1,2.8h-30.4ZM489.5,340.9h-18.3v8.3l6,5.3v13.7h12.3v-27.4ZM532.1,340.9h-18.4v8.3l6.1,5.4v16.4l-3.1,2.8h-12l-3.1-2.8v-32.8l3.1-2.8h30.4l3.1,2.8v35.6h-6.1v-32.9ZM581.2,371l-3.1,2.8h-30.5l-3.1-2.8v-8.2h6.1v5.5h12.1v-10.9h-15.1l-3.1-2.8v-16.4l3.1-2.8h30.5l3.1,2.8v8.1h-6.1v-5.4h-18.4v10.9h21.3l3.1,2.8v16.4Z" class="st0"/>
</svg>