<svg width="188" height="48" viewBox="0 0 188 48" fill="none" xmlns="http://www.w3.org/2000/svg">
<path d="M62.8103 2.92131C62.9098 2.92131 63.0093 4.71242 63.0093 6.86839V10.8155H64.4353C66.0935 10.8155 66.0603 10.8155 65.4302 13.1041L65.0323 14.5303L64.0042 14.5967L62.9762 14.663V18.0462C63.0093 22.3913 63.2746 25.5423 63.6063 25.874C63.971 26.2389 64.6011 25.9404 64.8001 25.3102C64.8996 25.0116 65.0323 23.8176 65.0986 22.6235L65.2312 20.4675L65.6955 21.1641C66.0935 21.7611 66.1598 22.2586 66.1598 24.7463C66.1598 27.2339 66.0935 27.7646 65.596 28.6602C64.5348 30.6172 62.2466 31.2474 60.7542 29.9869C60.3563 29.6553 59.7594 28.8592 59.4277 28.229C58.8971 27.1676 58.864 26.8028 58.6982 20.8324L58.5323 14.5635H57.5043C56.4762 14.5635 56.4763 14.5635 56.4763 13.8006C56.4763 13.0378 56.7747 12.7061 58.1012 11.313C59.8257 9.52188 61.2849 6.93472 62.1139 4.21489C62.3461 3.45201 62.6114 2.85498 62.744 2.85498L62.8103 2.92131ZM126.848 3.12033C127.047 3.12033 127.312 6.20501 127.345 8.82534V10.8155H128.672C130.197 10.8155 130.164 10.7823 129.534 12.9714C129.103 14.4972 129.07 14.5303 128.207 14.5967L127.312 14.663L127.378 20.1359C127.445 25.675 127.544 26.3052 128.34 25.9735C128.871 25.7745 129.003 25.277 129.169 22.922C129.235 21.7611 129.401 20.8324 129.534 20.8324C130.595 20.8324 130.761 26.7696 129.766 28.6602C129.468 29.1909 128.97 29.8874 128.605 30.1528C127.743 30.8493 126.184 30.8162 125.123 30.1196C124.626 29.7879 124.029 29.0251 123.598 28.1958L122.901 26.8028L122.802 20.7329L122.702 14.663H121.674C120.646 14.663 120.646 14.663 120.646 13.9001C120.646 13.1373 120.945 12.8387 122.039 11.6778C123.631 10.0194 125.19 7.49859 126.052 5.14361C126.383 4.24806 126.715 3.35251 126.815 3.15349C126.815 3.15349 126.815 3.12033 126.848 3.12033ZM34.2903 3.15349C37.3745 3.15349 39.5964 3.253 39.6959 3.38568C39.7622 3.51835 38.502 5.44213 36.9102 7.6976C35.2852 9.95307 33.826 12.0427 33.6271 12.3412C33.3286 12.8719 33.4281 13.3031 34.9204 17.9136C36.1474 21.6948 36.9765 23.7512 38.303 26.3052C39.2648 28.1627 40.0607 29.7548 40.0607 29.8211C40.0607 30.0533 29.0838 29.9538 28.9511 29.7216C28.8848 29.5889 29.4486 28.2622 30.2445 26.7696L31.7036 24.0498L30.7087 21.1973C30.1781 19.6383 29.6807 18.3116 29.6144 18.2452C29.2827 17.8804 25.7012 22.3582 25.7012 23.121C25.7012 23.8839 26.2649 25.0448 26.9945 26.6701C28.0226 29.0914 28.2215 29.6884 27.9231 29.7879C27.7241 29.8543 25.1042 29.9206 22.0864 29.9206C16.913 29.9206 16.6145 29.9206 16.8135 29.4894C16.9462 29.2572 17.8084 27.7978 18.737 26.2057L20.4283 23.3532V9.68772L18.5712 6.56987L16.714 3.45201L21.7548 3.28617C24.5405 3.18666 27.094 3.18666 27.4588 3.28617C28.2547 3.48518 28.2547 3.45201 26.6629 6.86839C25.4027 9.58822 25.3032 10.3179 25.7012 14.3977L25.867 15.9566L28.6527 12.308L31.4383 8.65949L30.2445 6.23818C29.5812 4.91143 29.0506 3.68419 29.0506 3.48518C29.0506 3.21983 30.0787 3.15349 34.2903 3.15349ZM75.6775 3.21983L77.2362 3.28617L77.6341 5.57481C77.8663 6.83522 78.2642 9.2897 78.5627 11.0145C78.8612 12.7724 79.1928 14.1987 79.2591 14.1987C79.3254 14.1987 79.7897 11.8105 80.254 8.85851L81.0831 3.51835L86.5549 3.31934C89.7717 3.18666 92.0931 3.18666 92.2258 3.31934C92.3584 3.45201 91.7283 4.74559 90.6671 6.5367L88.8763 9.52188V16.62V23.7181L90.6671 26.6701C91.662 28.2953 92.4579 29.7216 92.4579 29.8211C92.4579 30.1196 80.7846 30.0533 80.6188 29.7548C80.5525 29.6221 81.2157 28.1627 82.1443 26.5374L83.8356 23.5522V17.1507C83.8356 13.6348 83.7029 10.3179 83.6034 9.78723C83.504 9.25653 83.4045 8.92484 83.3713 9.02435C83.0728 11.0808 79.9555 29.6221 79.856 29.7879C79.6902 30.0533 77.4352 30.0533 77.2693 29.7879C77.203 29.6553 76.3739 25.078 75.4454 19.572C74.5168 14.066 73.7209 9.52188 73.6877 9.48871C73.6546 9.45554 73.5551 12.6397 73.4888 16.5536L73.3561 23.6849L75.0143 26.6369C75.9428 28.2622 76.6061 29.6884 76.5398 29.8211C76.3076 30.186 67.0884 30.1528 67.0884 29.7548C67.0884 29.5889 67.8511 28.1627 68.7797 26.6037L70.4378 23.7512V9.35604L68.647 6.43719L66.8562 3.51835L70.5041 3.31934C72.4939 3.21983 74.8484 3.15349 75.6775 3.18666V3.21983ZM21.2242 5.64114C21.0584 5.57481 21.1247 6.56987 21.4232 8.46048C21.7548 10.4838 21.8211 11.4125 21.6221 11.512C21.2573 11.7442 21.4232 24.5805 21.8211 26.5042C21.9869 27.3003 22.1527 28.03 22.2191 28.1295C22.3517 28.3617 23.0481 28.3617 23.4129 28.1295C24.0762 27.6983 24.5073 23.7844 24.5405 17.814V11.9764L23.015 8.85851C22.1527 7.13374 21.3568 5.70748 21.191 5.67431L21.2242 5.64114ZM137.659 10.2516C140.776 10.2516 142.899 13.7343 143.728 20.3349L143.893 21.5953H135.968V22.6898C135.968 24.9121 137.128 26.4047 139.019 26.5706C140.677 26.7364 142.169 26.0399 143.064 24.68L143.728 23.6517L143.794 24.4146C143.927 25.675 143.363 27.6983 142.666 28.7265C141.439 30.4181 138.355 31.3137 136.332 30.584C135.105 30.1196 134.343 29.5558 133.414 28.3285C130.23 24.1824 130.628 15.5586 134.144 11.9432C135.304 10.7491 136.332 10.2516 137.659 10.2516ZM113.019 10.4174C114.18 10.3843 115.407 10.716 116.501 11.512L117.496 12.2085L118.424 11.6447C118.922 11.3462 119.419 11.1471 119.552 11.2135C119.685 11.2798 119.751 12.8056 119.751 14.5967V17.8804L118.623 16.7858C117.098 15.3264 116.269 14.7957 114.776 14.2982C113.715 13.9665 113.35 13.9333 112.555 14.1655C111.659 14.4308 111.593 14.4972 111.659 15.3264L111.726 16.222L113.682 16.4873C114.776 16.6531 116.004 16.8853 116.435 17.018C117.628 17.416 118.822 18.5106 119.585 19.9368C120.182 21.0314 120.282 21.5289 120.381 23.5522C120.547 26.9354 119.917 28.8592 118.325 30.0865C116.965 31.1147 113.848 30.7498 111.659 29.2572L110.664 28.5939L109.703 29.6553C109.172 30.2523 108.675 30.7167 108.575 30.7167C108.476 30.7167 108.509 29.9869 108.575 29.0914C108.675 28.1958 108.741 26.3384 108.741 24.9453V22.3913L110.565 24.2819C112.621 26.4047 114.279 27.3666 115.805 27.3666C117.33 27.3666 117.595 26.8359 117.595 26.1062C117.595 25.3765 116.965 25.1775 115.141 24.9453C112.621 24.6136 110.565 23.5522 109.669 22.1591C109.271 21.5621 108.873 20.6666 108.741 20.2022C108.376 18.9086 108.442 14.9615 108.873 13.5685C109.437 11.6447 111.162 10.5169 113.052 10.4506L113.019 10.4174ZM99.9527 10.4838C101.445 10.4838 102.108 10.6164 102.838 10.9813C104.993 12.109 105.126 12.5402 105.358 20.0032C105.557 26.0067 105.723 27.2339 106.287 26.3716C106.419 26.1726 106.519 25.4428 106.519 24.7795C106.519 24.0829 106.618 23.4859 106.751 23.3864C107.149 23.121 107.481 24.4146 107.481 26.2721C107.481 29.1246 106.685 30.385 104.794 30.6172C103.932 30.7167 103.634 30.6172 103.004 30.0865C102.573 29.7216 102.042 28.9255 101.81 28.229L101.346 27.0018L101.014 27.7646C100.583 28.7929 99.6874 29.8543 98.8583 30.2855C98.1288 30.6503 96.1721 30.7167 95.4094 30.4181C94.7461 30.1528 93.9502 29.2241 93.6186 28.428C93.486 28.0632 93.3533 26.8028 93.3533 25.675C93.3533 21.8275 94.4145 20.5339 98.8915 18.9086L101.08 18.1126L100.981 16.4541C100.881 14.6299 100.682 14.3645 99.4221 14.3645C98.1619 14.3645 97.6313 14.9947 97.4987 16.7195C97.3328 18.4111 97.0675 18.6764 95.3099 18.6764C93.5523 18.6764 93.5523 18.1126 93.6518 15.9566C93.7844 13.5021 94.6135 12.1422 96.6033 11.114C97.8303 10.4838 98.2614 10.3843 99.9527 10.4174V10.4838ZM46.4942 10.7823V16.9848C46.4942 24.9785 46.6601 25.7745 48.1524 25.6419C49.5121 25.5092 50.308 22.922 50.308 18.6101V16.222L48.7493 13.867C47.8871 12.5734 47.2238 11.4457 47.3233 11.3793C47.4891 11.2135 51.535 10.8818 53.3921 10.8486H54.6523V17.9467V25.0448L55.9788 27.3003C56.7084 28.5275 57.3053 29.6553 57.3053 29.7879C57.3053 29.9206 55.9125 30.0201 53.9559 30.0201H50.6064L50.4738 29.2572C50.4075 28.826 50.308 28.0963 50.2748 27.632L50.2085 26.8028L49.4457 28.1295C48.0529 30.6172 46.4279 31.3469 44.6703 30.2855C44.2723 30.0201 43.7086 29.4894 43.4101 29.0914C42.3157 27.5656 42.1831 26.6701 42.1831 21.2968V16.2551L40.7571 13.867C39.7954 12.2085 39.4306 11.4125 39.6295 11.313C39.7954 11.2135 41.3872 11.0808 43.2111 10.9813L46.4942 10.8155V10.7823ZM150.824 10.7823V11.9432C150.824 12.5734 150.957 13.6016 151.057 14.1655C151.189 15.0279 151.289 15.1606 151.421 14.7625C152.549 11.91 153.477 10.8155 154.738 10.8155C155.998 10.8155 156.694 11.8105 157.291 12.9383C158.22 14.7957 158.187 18.2784 157.225 19.7378C156.694 20.5339 155.865 20.7992 154.771 20.5339C154.207 20.4012 154.207 20.3017 154.207 18.1789C154.207 16.0561 154.041 15.3927 153.212 15.3927C152.383 15.3927 151.455 18.0131 151.189 22.126L151.023 24.68L152.715 27.1676C153.643 28.5275 154.34 29.7216 154.273 29.8211C154.041 30.0533 144.424 29.9869 144.291 29.7879C144.225 29.6884 144.756 28.627 145.452 27.4661L146.745 25.3433V20.6334V15.9234L145.419 13.7011C144.258 11.7442 144.159 11.4457 144.524 11.313C144.756 11.2135 146.248 11.0808 147.873 10.9813L150.791 10.8155L150.824 10.7823ZM159.181 10.8155H165.118C168.368 10.8155 171.186 10.915 171.352 11.0145C171.584 11.1803 171.021 12.7392 168.799 18.0131C167.24 21.7611 165.88 25.0448 165.781 25.3433C165.615 25.874 165.648 25.9072 167.24 25.8077L168.865 25.7414L169.959 23.1874C170.556 21.7943 171.12 20.5339 171.22 20.4344C171.319 20.3349 171.385 22.3913 171.352 25.0448L171.286 29.8211L164.919 29.8874C160.972 29.9206 158.485 29.8874 158.386 29.7216C158.319 29.5889 159.646 26.1062 161.337 21.9933C163.028 17.8804 164.388 14.4308 164.322 14.3313C164.255 14.2318 163.658 14.1655 162.962 14.1655H161.735L160.806 16.5536C159.281 20.4675 159.248 20.4344 159.248 15.2932V10.8155H159.181ZM138.123 13.9333C137.261 13.9333 136.299 15.061 136.1 16.2883C135.769 18.4774 135.536 18.2452 138.024 18.2452H140.246L140.113 17.3497C139.781 14.9947 139.151 13.9333 138.09 13.9333H138.123ZM100.914 21.3631C100.45 21.3631 98.1619 22.5903 97.9629 22.9552C97.4655 23.8839 97.5318 25.9404 98.0624 26.5042C98.4935 26.9354 98.6594 26.9686 99.4884 26.6369C100.384 26.3052 101.047 24.7131 101.047 22.8557C101.047 22.0265 101.014 21.3631 100.948 21.3631H100.914ZM46.7595 31.181C47.456 31.181 47.456 31.181 47.456 32.3751V33.5692H48.7825C50.0427 33.5692 50.109 33.6023 50.0427 34.0999C50.0095 34.4315 49.7774 34.6637 49.4126 34.7301C48.9483 34.7964 48.882 34.9622 48.882 35.7251C48.882 36.488 49.0146 36.7534 49.4789 37.1182C50.0095 37.5494 50.0758 37.7484 50.0758 39.4068C50.0758 41.0653 50.0095 41.2643 49.6115 41.4633C48.9483 41.8282 46.8922 41.7618 46.3616 41.3638C45.9305 41.0653 45.8973 40.7336 45.9305 37.9143V34.7964C45.9636 34.7964 45.3335 34.7301 45.3335 34.7301C44.4381 34.6306 44.3718 33.934 45.2009 33.536C45.7647 33.2706 45.8973 33.0385 45.9305 32.2092C45.9968 31.2474 46.0631 31.181 46.6932 31.181H46.7595ZM130.031 31.181C130.894 31.181 131.424 31.9771 131.424 33.2375C131.424 34.4979 131.557 34.2989 132.187 34.7632L132.95 35.3271L132.817 38.2128C132.684 40.5678 132.585 41.1648 132.253 41.397C131.855 41.6955 129.733 41.795 129.136 41.5296C128.705 41.3638 128.705 31.8776 129.136 31.4464C129.302 31.2805 129.733 31.1479 130.065 31.1479L130.031 31.181ZM140.776 31.181C141.97 31.181 142.069 31.579 142.069 36.488C142.069 41.397 142.069 41.0321 141.605 41.3638C141.041 41.7618 134.906 41.8282 134.243 41.4301C133.878 41.2311 133.812 40.7668 133.812 37.7816C133.812 34.7964 133.911 34.2325 134.11 33.9672C134.343 33.6355 134.906 33.5692 136.797 33.5028L139.184 33.4365L139.251 32.6073C139.35 31.6454 139.814 31.181 140.743 31.181H140.776ZM20.3619 31.2142C22.0864 31.2142 23.7777 31.3137 23.9104 31.4795C24.242 31.8112 24.3083 34.6637 24.0099 35.1944C23.7777 35.6588 23.5124 35.692 21.9869 35.692H20.2293L20.0966 38.4781C19.9972 40.4682 19.8645 41.3306 19.6324 41.4633C19.1681 41.7618 17.0125 41.7287 16.4819 41.4301C16.1171 41.198 16.0508 40.7004 16.0508 36.4217C16.0508 32.1429 16.0508 31.6454 16.5482 31.38C16.8135 31.2142 18.5712 31.181 20.2956 31.181L20.3619 31.2142ZM52.3641 31.4132C52.9278 31.4132 53.2595 31.5459 53.3589 31.8112C53.5248 32.2756 53.0605 32.6073 52.1651 32.6073C51.6345 32.6073 51.5018 32.5078 51.5018 32.0102C51.5018 31.5127 51.6013 31.4132 52.3309 31.4132H52.3641ZM18.737 32.3751V34.7632H22.816V32.3751H18.737ZM69.5756 33.5028C71.3332 33.5028 73.124 33.6355 73.3893 33.934C73.9531 34.4979 73.9531 44.349 73.3893 44.8133C73.124 45.0124 71.8306 45.145 69.2108 45.2445L65.397 45.344V44.0836H72.3281V41.6955H69.2771C67.5858 41.6955 66.0603 41.596 65.8613 41.4633C65.5629 41.2975 65.4965 40.5346 65.4302 37.7816C65.3639 34.8296 65.4302 34.2657 65.7618 33.934C66.0603 33.6355 67.8179 33.5028 69.5756 33.5028ZM29.0174 33.536C30.4434 33.536 31.8694 33.6355 32.0684 33.8345C32.2342 34.0004 32.3669 34.5974 32.3669 35.1281C32.3669 35.6588 32.5327 36.3222 33.0965 36.9524C33.7266 37.6821 33.826 37.9474 33.826 39.3073C33.826 40.1366 33.7266 40.9989 33.5939 41.198C33.2623 41.6955 26.7624 41.8613 26.0991 41.397C25.7343 41.1316 25.668 40.7668 25.7343 39.1747L25.8006 37.2509L28.3873 37.0519L30.974 36.8529V34.7632H29.0506C27.3261 34.7632 27.094 34.7964 26.9945 35.2276C26.9282 35.5261 26.6629 35.692 26.2981 35.692C25.9333 35.692 25.7343 35.5593 25.7343 34.8959C25.7343 34.2325 25.867 33.9672 26.0328 33.8345C26.2318 33.6355 27.6578 33.536 29.0838 33.536H29.0174ZM39.3974 33.5692C41.0555 33.5692 42.7137 33.6687 42.9458 33.8677C43.178 34.0335 43.4101 34.5311 43.5096 34.9291C43.6754 35.692 43.6422 35.692 42.78 35.692C41.9178 35.692 41.9178 35.5924 41.9178 35.2276C41.9178 34.8627 41.752 34.7632 39.9943 34.7632H38.0709V36.8529L40.4918 36.9855C41.8183 37.0519 43.0453 37.2509 43.178 37.3836C43.3106 37.5162 43.4433 38.3786 43.4433 39.3405C43.4433 41.6623 43.3769 41.7287 39.2979 41.6955C37.5071 41.6955 35.849 41.5628 35.65 41.4301C35.0531 41.0653 35.0862 39.6059 35.7163 39.4068C36.3133 39.2078 36.6781 39.4068 36.6781 40.0039C36.6781 40.6009 36.8439 40.4682 38.0046 40.4682H39.3311V38.0801H37.5734C36.5454 38.0801 35.7163 37.9806 35.5505 37.7816C35.3847 37.6157 35.2521 36.7865 35.2521 35.7583C35.2521 34.2989 35.3184 33.9672 35.7163 33.7682C36.048 33.6023 37.7393 33.5028 39.4306 33.5028L39.3974 33.5692ZM51.7671 33.5692H52.4967C53.2263 33.5692 53.2263 33.5692 53.2263 34.9291C53.2263 36.289 53.3258 36.3885 53.8896 36.9855C54.4865 37.6157 54.5528 37.7816 54.4533 39.4068C54.4202 40.3687 54.2543 41.2643 54.1217 41.4301C53.7901 41.8613 52.5962 41.795 52.1651 41.3638C51.8666 41.0653 51.8003 40.3356 51.8003 37.2841V33.6023L51.7671 33.5692ZM59.9252 33.5692C61.716 33.5692 63.4736 33.6687 63.6726 33.8677C63.8716 34.0667 63.971 35.3271 63.971 37.9474V41.7287H62.5451V34.7964H58.466V35.4929C58.466 35.9241 58.7313 36.5212 59.1956 37.0187C59.8257 37.7484 59.9252 38.0138 59.9252 39.4068C59.9252 41.4301 59.6599 41.7287 57.7696 41.7287C55.8793 41.7287 56.2773 41.6292 56.0451 41.3306C55.5477 40.7336 55.5809 34.133 56.0451 33.8345C56.3104 33.6687 58.1344 33.6023 59.9252 33.6023V33.5692ZM85.3611 33.5692C86.1901 33.5692 86.9529 33.7018 87.1187 33.8677C87.2845 34.0335 87.4172 34.8627 87.4172 35.8578C87.4172 37.4499 87.3508 37.6157 86.6876 38.2459C86.157 38.7435 85.958 39.1747 85.958 39.7385V40.5346H90.037V33.6023H91.463V39.042C91.463 42.0272 91.3635 44.6475 91.2309 44.8133C91.0651 45.0787 90.1365 45.1782 87.2182 45.2445C85.1289 45.3109 83.3381 45.2445 83.2386 45.1782C83.1392 45.0787 83.0728 44.7802 83.0728 44.548C83.0728 44.15 83.3381 44.1168 86.5549 44.1168H90.037V41.7618L86.8202 41.6955C85.0626 41.6623 83.5039 41.5296 83.4045 41.4301C83.305 41.3306 83.2055 39.7054 83.2055 37.8148C83.2055 33.6687 83.2386 33.6023 85.3279 33.6023L85.3611 33.5692ZM97.0344 33.5692C98.8252 33.5692 100.583 33.6687 100.782 33.8677C100.981 34.0667 101.08 35.2608 101.08 37.7152V41.2643L100.45 41.4965C99.4553 41.8613 93.8176 41.795 93.287 41.397C92.8559 41.0985 92.8227 40.7336 92.8227 37.5494C92.8227 34.3652 92.889 34.0004 93.1875 33.8345C93.4528 33.6687 95.2767 33.6023 97.0675 33.6023L97.0344 33.5692ZM109.404 33.5692H110.598V37.3836C110.598 40.8994 110.565 41.2311 110.134 41.4633C109.669 41.7287 103.833 41.795 103.17 41.5296C102.539 41.2975 102.473 40.8994 102.473 37.8811C102.473 34.0667 102.606 33.7018 103.601 33.6023C104.662 33.5028 104.993 33.8345 105.159 35.1944C105.259 35.9573 105.524 36.5875 105.922 36.9855C106.419 37.5162 106.519 37.8811 106.519 39.042V40.4682H109.404V33.536V33.5692ZM115.904 33.5692C118.988 33.5692 119.021 33.5692 118.922 34.0999C118.856 34.5974 118.723 34.6306 116.866 34.6969L114.876 34.7632V35.5925C114.876 36.1895 115.042 36.5875 115.473 36.9524C116.004 37.4167 116.07 37.6489 116.07 39.2078C116.07 40.7668 115.805 41.6955 114.047 41.6955C112.289 41.6955 112.654 41.5628 112.389 41.3306C112.09 41.0321 112.024 40.3356 112.024 37.6489C112.024 34.9622 112.09 34.2657 112.389 33.9672C112.687 33.6687 113.35 33.6023 115.871 33.6023L115.904 33.5692ZM147.972 33.5692C149.763 33.5692 151.521 33.6687 151.72 33.8677C151.919 34.0667 152.018 34.8627 152.018 35.8578C152.018 37.8148 151.819 38.1464 150.592 38.1464C150.128 38.1464 149.332 38.2128 148.835 38.3123C147.972 38.445 147.939 38.4781 147.939 39.5064V40.5678H149.233C150.393 40.5678 150.526 40.5014 150.592 40.0371C150.659 39.639 150.858 39.4732 151.322 39.4068C151.952 39.3405 151.985 39.4068 151.985 40.3024C151.985 41.198 151.886 41.3306 151.355 41.5296C150.36 41.8945 144.723 41.8282 144.192 41.4301C143.761 41.1316 143.728 40.7668 143.728 37.5826C143.728 34.3984 143.794 34.0335 144.092 33.8677C144.358 33.7018 146.182 33.6355 147.972 33.6355V33.5692ZM166.875 33.5692C168.732 33.5692 170.424 33.6687 170.689 33.8013C171.021 33.9672 171.153 34.2989 171.153 34.8627C171.153 35.4266 171.087 35.692 170.556 35.692C170.026 35.692 169.926 35.5261 169.827 35.2276C169.694 34.7964 169.462 34.7632 167.671 34.7632H165.648V36.8529L168.235 37.0187C169.727 37.1182 170.888 37.3172 170.987 37.4499C171.087 37.6157 171.153 38.5113 171.153 39.4732C171.153 41.1316 171.153 41.2311 170.556 41.4633C169.661 41.795 163.692 41.7618 163.327 41.397C162.829 40.8994 162.962 39.5727 163.526 39.4068C164.123 39.2078 164.488 39.4068 164.488 40.0039C164.488 40.6009 164.653 40.4682 165.814 40.4682H167.141V38.3455L165.781 38.1796C165.018 38.1133 164.189 38.0138 163.924 37.9806C162.929 37.8811 162.431 35.1613 163.227 34.0335C163.592 33.536 163.758 33.5028 166.942 33.5028L166.875 33.5692ZM156.794 33.5692C158.22 33.5692 159.646 33.6355 159.878 33.7682C160.077 33.9009 160.276 34.5311 160.309 35.2939C160.375 36.289 160.574 36.7534 160.972 37.1514C161.47 37.6157 161.536 37.9143 161.536 39.44C161.536 40.9658 161.536 41.198 160.906 41.4301C159.911 41.795 154.273 41.7287 153.743 41.3306C153.345 41.0653 153.279 40.7004 153.279 39.3073C153.279 38.3786 153.378 37.5162 153.544 37.3504C153.71 37.1845 154.903 37.0187 156.23 36.9524L158.651 36.8197V34.7301H156.727C154.97 34.7301 154.804 34.7632 154.804 35.1944C154.804 35.6256 154.638 35.6588 153.942 35.6588C153.245 35.6588 153.08 35.6588 153.212 34.7964C153.279 34.2989 153.477 33.8345 153.676 33.735C153.875 33.6023 155.301 33.536 156.761 33.536L156.794 33.5692ZM68.2491 34.7632V35.5593C68.2491 36.1231 68.448 36.5875 68.9786 37.1182C69.6087 37.7816 69.7082 38.0469 69.7082 39.1747V40.5014H72.3281V34.7632H68.2491ZM95.4757 34.7632L95.6415 35.6588C95.741 36.1563 96.0727 36.8197 96.3711 37.1514C96.8354 37.6489 96.9349 38.0138 96.9349 39.1415V40.5014H99.5548V34.7632H95.4426H95.4757ZM135.304 34.7632L135.205 36.9524C135.138 38.1464 135.138 39.44 135.205 39.838C135.304 40.5014 135.371 40.5346 136.598 40.5346H137.891V39.1747C137.891 38.0469 137.99 37.7152 138.488 37.1845C138.82 36.8197 139.151 36.1563 139.251 35.692L139.383 34.8296H135.304V34.7632ZM146.513 34.7632V35.692C146.513 36.1895 146.58 36.687 146.679 36.7534C146.779 36.8529 147.674 36.9192 148.702 36.9192H150.592V34.7632H146.513ZM30.0787 38.0801C29.8133 38.0801 29.4817 38.1464 29.0506 38.2459C28.3542 38.3786 28.2879 38.445 28.2879 39.44V40.5014H30.9077V39.3073C30.9077 38.3123 30.8414 38.0138 30.0455 38.0801H30.0787ZM156.064 38.3455V39.2742C156.064 39.7717 156.131 40.2692 156.23 40.3687C156.329 40.4682 156.926 40.5014 157.59 40.4682L158.784 40.4019L158.85 39.3737L158.916 38.3455H156.031H156.064Z" fill="url(#paint0_linear_135_914)"/>
<defs>
<linearGradient id="paint0_linear_135_914" x1="16.1171" y1="24.1493" x2="171.385" y2="24.1493" gradientUnits="userSpaceOnUse">
<stop stop-color="#55C2EC"/>
<stop offset="1" stop-color="#80C8BF"/>
</linearGradient>
</defs>
</svg>
